<svg width="584" height="125" xmlns="http://www.w3.org/2000/svg">
	<g>
		<title>MC+A logo</title>
		<rect fill="transparent" id="canvas_background" height="127" width="586" y="-1" x="-1"/>
		<g display="none" overflow="visible" y="0" x="0" height="100%" width="100%" id="canvasGrid">
			<rect fill="url(#gridpattern)" stroke-width="0" y="1" x="1" height="400" width="580"/>
		</g>
	</g>
	<g>
		<title>Layer 1</title>
		<metadata transform="matrix(0.015942249232354877,0,0,0.015942249232354877,0,0) " id="svg_31">image/svg+xml</metadata>
		<defs>
			<clipPath clipPathUnits="userSpaceOnUse" id="svg_21">
				<path d="m13350.676799,-8442.739451l792,0l0,-612l-792,0l0,612z" id="svg_30"/>
			</clipPath>
		</defs>
		<g stroke="null" id="svg_33">
			<g stroke="null" id="svg_18" transform="matrix(2.3539253032568577,0,0,-2.3539253032568577,-31824.85840480529,-20507.339071780778) ">
				<g stroke="null" id="svg_28">
					<path fill="#959899" fill-rule="nonzero" d="m13530.246071,-8715.403038l22.857,-40.238l22.759,40.238l9.252,0l0,-45.898l-6.267,0l0,39.667l-0.186,0l-22.598,-39.667l-5.924,0l-22.693,39.667l-0.184,0l0,-39.667l-6.268,0l0,45.898l9.252,0z" id="svg_29"/>
				</g>
				<g stroke="null" id="svg_19">
					<g stroke="null" id="svg_20" clip-path="url(#svg_21)">
						<g stroke="null" id="svg_26">
							<path
								fill="#959899"
								fill-rule="nonzero"
								d="m13647.473686,-8724.596336c-1.267,1.393 -2.811,2.564 -4.629,3.506c-1.821,0.942 -3.826,1.662 -6.016,2.155c-2.192,0.489 -4.491,0.735 -6.896,0.735c-4.38,0 -8.146,-0.577 -11.294,-1.728c-3.146,-1.156 -5.722,-2.688 -7.728,-4.592c-2.007,-1.902 -3.488,-4.055 -4.444,-6.451c-0.956,-2.395 -1.433,-4.854 -1.433,-7.377c0,-2.484 0.477,-4.933 1.433,-7.351c0.956,-2.417 2.437,-4.574 4.444,-6.48c2.006,-1.907 4.582,-3.434 7.728,-4.59c3.148,-1.153 6.914,-1.731 11.294,-1.731c3.087,0 5.863,0.385 8.329,1.156c2.468,0.772 4.599,1.823 6.388,3.151c1.791,1.33 3.239,2.885 4.353,4.66c1.107,1.784 1.822,3.701 2.129,5.757l6.294,0c-0.432,-2.826 -1.391,-5.38 -2.871,-7.65c-1.481,-2.273 -3.395,-4.203 -5.74,-5.789c-2.346,-1.586 -5.106,-2.81 -8.283,-3.664c-3.178,-0.855 -6.711,-1.285 -10.599,-1.285c-5.183,0 -9.735,0.652 -13.654,1.959c-3.919,1.307 -7.172,3.051 -9.76,5.236c-2.589,2.186 -4.529,4.709 -5.819,7.578c-1.289,2.869 -1.935,5.89 -1.935,9.059c0,3.167 0.646,6.187 1.935,9.055c1.29,2.87 3.23,5.409 5.819,7.614c2.588,2.207 5.841,3.96 9.76,5.266c3.919,1.307 8.471,1.961 13.654,1.961c3.146,0 6.218,-0.328 9.211,-0.974c2.992,-0.647 5.708,-1.607 8.144,-2.877c2.439,-1.27 4.474,-2.828 6.109,-4.673c1.637,-1.842 2.671,-3.962 3.101,-6.363l-6.294,0c-0.557,1.756 -1.466,3.332 -2.73,4.727"
								id="svg_27"/>
						</g>
						<g stroke="null" id="svg_24">
							<path fill="#7d7777" fill-rule="nonzero" d="m13738.859368,-8716.685234l-0.184,0l-16.291,-28.223l32.211,0l-15.736,28.223zm-26.01,-44.616l-2.039,0l26.754,45.898l2.406,0l26.104,-45.898l-2.035,0l-8.703,15.142l-33.694,0l-8.793,-15.142z" id="svg_25"/>
						</g>
						<g stroke="null" id="svg_22">
							<path fill="#00a5e2" fill-rule="nonzero" d="m13683.226586,-8716.050438l0,-21.798l21.666,0l0,-1.794l-21.666,0l0,-21.723l-1.771,0l0,21.723l-21.664,0l0,1.794l21.664,0l0,21.798l1.771,0z" id="svg_23"/>
						</g>
					</g>
				</g>
			</g>
		</g>
	</g>
</svg>
